# xmcd CD database file
#
# Track frame offsets:
#	150
#	10580
#	22690
#	35468
#	48509
#	57856
#	73063
#	89347
#	107718
#	117125
#	130672
#	138415
#	157509
#	166944
#	178919
#
# Disc length: 2531 seconds
#
# Revision: 0
# Processed by: cddbd v1.5.1PL0 Copyright (c) Steve Scherf et al.
# Submitted via: CDex 1.51
#
DISCID=b409e10f
DTITLE=Hilde Marie Kjersem - Jon Eberson - Twelve o'clock tales
DYEAR=2005
DGENRE=Jazz
TTITLE0=Autumn In New York
TTITLE1=But Beautiful
TTITLE2=Black Coffee
TTITLE3=When Sunny Gets Blue
TTITLE4=As Times Goes By
TTITLE5=Lush Life
TTITLE6=My Romance
TTITLE7=Born To Be Blue
TTITLE8=We'll Be Together Again
TTITLE9=All Night Long
TTITLE10=Moon River
TTITLE11=When You Wish Upon A Star
TTITLE12=Buddy's Blues
TTITLE13=Angel Eyes
TTITLE14=Everythong Happens To Me
EXTD=YEAR: 2005
EXTT0=
EXTT1=
EXTT2=
EXTT3=
EXTT4=
EXTT5=
EXTT6=
EXTT7=
EXTT8=
EXTT9=
EXTT10=
EXTT11=
EXTT12=
EXTT13=
EXTT14=
PLAYORDER=
